<svg width="48" height="60" viewBox="0 0 48 60" fill="none" xmlns="http://www.w3.org/2000/svg">
<path d="M10.097 2.17406C5.79395 5.39269 2.70304 10.3482 1.58789 15.8137C0.569707 20.7692 1.18789 25.7004 3.39395 30.3279C4.95759 33.6073 7.35759 36.5708 10.1576 38.6842C11.2364 39.498 11.6606 39.6316 11.9152 39.2186C12.1333 38.8785 11.8909 38.4534 11.2364 38.004C7.20001 35.1862 3.8788 30.1214 2.81213 25.1295C2.06062 21.6437 2.16971 17.7328 3.11516 14.4534C3.80607 12.0486 4.89698 9.7773 6.40001 7.6518C7.34546 6.30362 9.61213 3.97164 10.8849 3.04856C11.6121 2.502 11.7576 2.3441 11.7576 2.05261C11.7576 1.73682 11.4909 1.45747 11.1758 1.45747C11.103 1.45747 10.6182 1.77325 10.097 2.17406Z" fill="white"/>
<path d="M36.097 1.71253C35.9758 1.7854 35.8788 1.97974 35.8788 2.16192C35.8788 2.44127 36.0485 2.62346 36.8727 3.2186C38.1212 4.12953 40.0848 6.07285 41.0424 7.34816C44.0485 11.3441 45.5636 15.7652 45.5758 20.6113C45.5758 25.7125 43.8545 30.5708 40.6061 34.5546C39.7333 35.6235 37.9879 37.2996 36.9212 38.0769C36.2667 38.5627 36.1212 38.7328 36.1212 39.0121C36.1212 39.4008 36.4848 39.6558 36.8606 39.5344C37.2848 39.4008 39.4303 37.5911 40.4242 36.5344C49.0061 27.4251 48.8364 13.251 40.0485 4.44532C38.6545 3.04856 36.7636 1.56678 36.4 1.57893C36.3515 1.57893 36.2061 1.63965 36.097 1.71253Z" fill="white"/>
<path d="M12.9576 5.9028C11.903 6.66798 10.0364 8.59915 9.18788 9.77729C7.47879 12.2064 6.31515 15.1579 5.92727 18.1579C5.74545 19.5425 5.85454 22.6882 6.12121 23.9271C7.15151 28.6153 9.47879 32.2348 13.3818 35.1983C13.8303 35.5384 14.3758 35.5506 14.5455 35.2226C14.7515 34.834 14.6061 34.6032 13.8545 34.0688C12.6788 33.255 10.7879 31.2631 9.90303 29.9271C7.92727 26.9392 7.01818 23.9878 7.00606 20.4656C6.99394 16.9068 7.91515 13.8461 9.90303 10.834C10.7152 9.60725 12.303 7.90685 13.5152 6.97162C14.497 6.21859 14.6545 5.87851 14.1576 5.53843C14.0121 5.42911 13.8545 5.34409 13.8061 5.34409C13.7576 5.34409 13.3818 5.59915 12.9576 5.9028Z" fill="white"/>
<path d="M33.3333 5.82995C33.1273 6.21861 33.2849 6.48582 34.0242 6.99594C35.0424 7.68825 36.9212 9.61942 37.7939 10.8704C40.8606 15.2308 41.7212 20.915 40.0606 25.9555C38.9939 29.1498 36.8 32.2712 34.2788 34.1538C33.4061 34.7976 33.2606 35.1255 33.6485 35.5142C33.9394 35.8178 34.097 35.7571 35.1394 34.9797C38.3636 32.5384 40.7636 28.6518 41.7212 24.3158C42.0849 22.6882 42.1091 18.8016 41.7697 17.247C40.7879 12.7044 38.3636 8.78136 34.9697 6.23076C34.0364 5.5263 33.5515 5.41699 33.3333 5.82995Z" fill="white"/>
<path d="M15.5152 10.1295C12.5455 12.4858 10.7515 16.0324 10.5819 19.8704C10.4485 22.8461 11.1637 25.4453 12.7758 27.8623C13.8667 29.4898 15.9758 31.4575 16.6303 31.4575C17.297 31.4575 17.3819 30.7044 16.7637 30.3036C14.7879 29.0283 12.8364 26.2226 12.097 23.6235C11.8546 22.7732 11.8182 22.3724 11.8182 20.5263C11.8182 18.8259 11.8667 18.2307 12.0485 17.5506C12.3758 16.3239 12.9576 15 13.6364 13.9554C14.2546 12.9838 15.7334 11.3927 16.497 10.8583C17.0303 10.4939 17.1637 10.2024 16.9697 9.83803C16.7516 9.43722 16.2546 9.53438 15.5152 10.1295Z" fill="white"/>
<path d="M30.7879 9.83807C30.5818 10.2267 30.7273 10.4575 31.6485 11.1741C33.5637 12.668 35.0546 14.9271 35.7818 17.4413C36.0243 18.2915 36.0606 18.6559 36.0606 20.5871C36.0485 23.0405 35.8909 23.8421 35.1031 25.5547C34.2909 27.3158 32.6667 29.3563 31.3576 30.2429C30.8728 30.5709 30.7394 30.8138 30.8606 31.1417C30.994 31.4939 31.3576 31.6033 31.7455 31.3968C32.2909 31.1174 34.097 29.3441 34.7758 28.4332C37.3334 24.9838 38.0243 20.2956 36.594 16.2024C35.9394 14.2956 35.0909 12.9474 33.5758 11.3806C32 9.72876 31.1031 9.24293 30.7879 9.83807Z" fill="white"/>
<path d="M18.2667 12.8867C17.9515 13.0931 17.3939 13.6032 17.0182 14.0041C14.5818 16.7004 13.8909 20.5142 15.2242 23.8786C15.8545 25.4939 17.1515 27.1579 18.4 27.996C18.8364 28.2875 18.9576 28.3118 19.2121 28.2024C19.4303 28.1053 19.5151 27.9717 19.5151 27.7288C19.5151 27.4615 19.3454 27.2551 18.7273 26.7449C17.3697 25.6518 16.3394 24 15.9394 22.3118C15.6848 21.2186 15.7091 19.4211 16 18.2915C16.3879 16.7611 16.9818 15.7652 18.3273 14.417C18.9818 13.7611 19.5151 13.1781 19.5151 13.1053C19.5151 12.9717 19.0667 12.5101 18.9333 12.5101C18.8727 12.5101 18.5697 12.6802 18.2667 12.8867Z" fill="white"/>
<path d="M28.5818 12.8866C28.4485 12.9595 28.3636 13.1538 28.3636 13.3603C28.3636 13.6396 28.4849 13.7975 28.9818 14.1619C30.2909 15.1214 31.5394 17.0526 31.9273 18.7044C32.194 19.834 32.1697 21.6194 31.8788 22.7611C31.4909 24.2915 30.897 25.2874 29.5515 26.6356C28.897 27.2915 28.3636 27.8745 28.3636 27.9473C28.3636 28.1174 28.8243 28.5425 29.0182 28.5425C29.4303 28.5425 30.9333 27.1093 31.7333 25.9554C33.2243 23.7935 33.7455 20.502 32.9697 18.0364C32.3758 16.1417 31.1636 14.332 29.794 13.2996C29.0303 12.7287 28.9212 12.6801 28.5818 12.8866Z" fill="white"/>
<path d="M23.7212 17.6599C22.8727 17.8907 22.1818 18.4251 21.8303 19.1296C21.5757 19.6154 21.5151 19.9069 21.5151 20.6599C21.5151 21.4737 21.5636 21.6437 21.8788 22.166C22.0848 22.4939 22.4848 22.9312 22.7757 23.1377C23.2363 23.4535 23.406 23.502 24.2788 23.5385C25.1757 23.5749 25.3333 23.5506 25.9394 23.2348C26.7515 22.8097 27.2242 22.166 27.4182 21.2429C27.7091 19.834 27.103 18.498 25.9151 17.9393C25.0909 17.5385 24.4485 17.4656 23.7212 17.6599ZM25.5636 19.0324C26.2909 19.5668 26.5333 20.8178 26.0606 21.5952C25.5757 22.3968 24.2303 22.6883 23.4424 22.166C22.7273 21.7045 22.4363 20.4778 22.8485 19.6761C23.0424 19.3118 23.5394 18.8988 23.9394 18.7895C24.3757 18.668 25.2363 18.7895 25.5636 19.0324Z" fill="white"/>
<path d="M21.903 37.6154C21.8546 47.7935 21.8303 49.251 21.6485 50.1498C21.3939 51.4615 21.1152 52.0688 20.4849 52.7611C19.7091 53.5992 18.5939 54.0486 16.8242 54.2308C16.0727 54.3158 16.0121 54.3401 16.0606 54.583C16.1333 54.9109 16.6061 58.2753 16.6061 58.4453C16.6061 58.6275 18.5212 58.4818 19.6727 58.2267C24.0364 57.2429 26.2909 54.5344 26.9091 49.5546C26.9818 48.9109 27.0303 44.3563 27.0303 37.3239V26.1133H24.497H21.9515L21.903 37.6154ZM25.8182 38.1619C25.8182 44.7328 25.7697 49.3482 25.697 49.8583C25.2364 53.0283 23.8667 55.2267 21.697 56.2712C20.6667 56.7692 19.3333 57.1579 18.3152 57.2793L17.6243 57.3522L17.4909 56.4048C17.4303 55.8704 17.3818 55.4332 17.3939 55.4089C17.4182 55.3846 17.7939 55.2874 18.2546 55.2024C20.4606 54.7287 21.8182 53.587 22.4727 51.6073C23.0303 49.9312 23.0546 49.2753 23.1152 37.9797L23.1758 27.3279H24.497H25.8182V38.1619Z" fill="white"/>
</svg>
